<svg xmlns="http://www.w3.org/2000/svg" xmlns:xlink="http://www.w3.org/1999/xlink" xmlns:sketch="http://www.bohemiancoding.com/sketch/ns" viewBox="0 0 100 125" version="1.1" x="0px" y="0px"><title>grandpa</title><desc>Created with Sketch.</desc><g stroke="none" stroke-width="1" fill="none" fill-rule="evenodd" sketch:type="MSPage"><path d="M55.807,85.841 C55.212,85.841 54.731,86.323 54.731,86.917 C54.731,87.511 55.212,87.993 55.807,87.993 C56.401,87.993 56.882,87.511 56.882,86.917 C56.882,86.323 56.401,85.841 55.807,85.841 L55.807,85.841 Z M55.807,72.931 C55.212,72.931 54.731,73.413 54.731,74.007 C54.731,74.601 55.212,75.083 55.807,75.083 C56.401,75.083 56.882,74.601 56.882,74.007 C56.882,73.413 56.401,72.931 55.807,72.931 L55.807,72.931 Z M55.807,79.386 C55.212,79.386 54.731,79.868 54.731,80.462 C54.731,81.056 55.212,81.538 55.807,81.538 C56.401,81.538 56.882,81.056 56.882,80.462 C56.882,79.868 56.401,79.386 55.807,79.386 L55.807,79.386 Z M19.752,67.555 C19.533,67.405 19.235,67.46 19.084,67.679 C18.934,67.897 18.989,68.197 19.207,68.347 C19.246,68.374 23.084,71.076 23.084,75.641 L23.084,90.138 C23.084,90.403 23.3,90.619 23.565,90.619 C23.83,90.619 24.046,90.403 24.046,90.138 L24.046,75.641 C24.046,70.56 19.927,67.675 19.752,67.555 L19.752,67.555 Z M68.86,52.908 C70.046,49.315 70.059,46.098 70.059,45.885 L70.059,35.382 C71.326,35.136 72.295,33.954 72.295,32.548 C72.295,31.135 71.327,29.966 70.058,29.721 L70.058,23.917 C70.067,23.695 70.236,18.437 66.935,14.306 C66.43,13.675 65.837,13.095 64.874,13.145 C64.241,13.181 63.697,13.527 63.429,14.021 C60.556,11.085 56.456,9 50.592,9 C44.776,9 40.693,11.05 37.823,13.948 C37.543,13.493 37.02,13.18 36.418,13.145 C35.457,13.095 34.861,13.675 34.357,14.306 C31.056,18.437 31.224,23.695 31.233,23.898 L31.233,29.729 C29.977,29.992 29.046,31.152 29.046,32.548 C29.046,33.903 29.916,35.036 31.129,35.34 C31.154,35.687 31.188,36.075 31.233,36.496 L31.233,45.883 C31.232,46.096 31.246,49.294 32.42,52.872 C25.116,54.91 13,60.322 13,73.798 C13,74.064 13.215,74.279 13.481,74.279 C13.746,74.279 13.962,74.064 13.962,73.798 C13.962,60.911 25.693,55.727 32.74,53.776 C33.475,55.711 34.566,57.692 36.193,59.324 C38.585,61.723 41.726,62.94 45.528,62.94 L50.165,62.94 L50.165,90.138 C50.165,90.403 50.38,90.619 50.646,90.619 C50.911,90.619 51.126,90.403 51.126,90.138 L51.126,62.94 L55.763,62.94 C59.566,62.94 62.706,61.723 65.098,59.324 C66.716,57.701 67.804,55.733 68.539,53.809 C75.599,55.783 87.193,60.978 87.193,73.798 C87.193,74.064 87.408,74.279 87.674,74.279 C87.939,74.279 88.154,74.064 88.154,73.798 C88.154,60.398 76.176,54.972 68.86,52.908 L68.86,52.908 Z M71.333,32.548 C71.333,33.417 70.791,34.15 70.059,34.384 L70.058,30.71 C70.792,30.942 71.333,31.674 71.333,32.548 L71.333,32.548 Z M31.233,34.364 C30.513,34.118 30.007,33.402 30.007,32.548 C30.007,31.693 30.519,30.978 31.233,30.732 L31.233,34.364 L31.233,34.364 Z M64.222,14.602 C64.289,14.299 64.629,14.122 64.929,14.105 L64.992,14.103 C65.45,14.103 65.788,14.41 66.184,14.907 C69.256,18.75 69.1,23.828 69.098,23.898 L69.098,30.153 C69.035,30.154 68.971,30.167 68.909,30.194 L66.862,31.109 C66.891,30.78 66.916,30.456 66.938,30.137 C66.984,29.455 67.007,28.899 67.012,28.383 L67.012,23.869 C67.012,20.675 66.471,18.627 64.947,16.044 C64.862,15.901 64.758,15.754 64.652,15.605 C64.351,15.184 64.158,14.887 64.222,14.602 L64.222,14.602 Z M40.686,12.827 C42.086,11.841 43.665,11.118 45.311,10.652 C46.996,10.176 48.79,9.928 50.592,9.924 C53.269,9.918 55.962,10.45 58.33,11.568 C59.34,12.045 60.297,12.634 61.178,13.322 C64.349,15.797 65.894,19.507 66.046,23.461 C66.13,25.65 66.127,27.889 65.979,30.073 C65.946,30.556 65.902,31.056 65.851,31.56 L63.994,32.389 C63.637,29.416 61.102,27.102 58.034,27.102 C54.884,27.102 52.297,29.541 52.051,32.629 L49.34,32.629 C49.094,29.541 46.507,27.102 43.357,27.102 C40.286,27.102 37.749,29.42 37.396,32.398 L35.446,31.611 C35.392,31.089 35.347,30.573 35.313,30.072 C35.268,29.414 35.245,28.876 35.241,28.383 L35.241,23.869 C35.241,19.504 37.075,15.37 40.686,12.827 L40.686,12.827 Z M43.357,39.116 C46.507,39.116 49.094,36.678 49.34,33.59 L52.051,33.59 C52.297,36.678 54.884,39.116 58.034,39.116 C61.239,39.116 63.858,36.592 64.025,33.428 L65.716,32.673 C65.447,34.585 64.963,36.54 63.973,38.239 C63.409,39.207 62.535,40.1 61.575,40.687 C60.381,41.418 58.844,41.531 57.359,41.642 C57.088,41.661 56.821,41.681 56.559,41.705 C54.85,41.857 53.027,41.925 50.646,41.925 C48.265,41.925 46.441,41.857 44.732,41.705 C44.471,41.681 44.204,41.661 43.933,41.642 C42.447,41.531 40.911,41.418 39.716,40.687 C38.757,40.1 37.883,39.207 37.318,38.239 C36.334,36.549 35.849,34.605 35.58,32.701 L37.201,33.355 C37.255,33.377 37.309,33.385 37.364,33.387 C37.511,36.57 40.138,39.116 43.357,39.116 L43.357,39.116 Z M38.311,33.109 C38.311,30.327 40.575,28.063 43.357,28.063 C46.139,28.063 48.403,30.327 48.403,33.109 C48.403,35.892 46.139,38.155 43.357,38.155 C40.575,38.155 38.311,35.892 38.311,33.109 L38.311,33.109 Z M52.988,33.109 C52.988,30.327 55.251,28.063 58.034,28.063 C60.816,28.063 63.08,30.327 63.08,33.109 C63.08,35.892 60.816,38.155 58.034,38.155 C55.251,38.155 52.988,35.892 52.988,33.109 L52.988,33.109 Z M35.108,14.907 C35.504,14.41 35.842,14.103 36.299,14.103 L36.363,14.105 C36.663,14.122 37.002,14.299 37.07,14.602 C37.133,14.887 36.941,15.184 36.64,15.605 C36.533,15.754 36.43,15.901 36.345,16.044 C34.82,18.627 34.28,20.675 34.28,23.869 L34.28,28.387 C34.284,28.904 34.308,29.46 34.354,30.137 C34.378,30.487 34.405,30.843 34.437,31.204 L32.194,30.299 L32.193,23.879 C32.192,23.828 32.028,18.76 35.108,14.907 L35.108,14.907 Z M64.414,58.649 C62.209,60.859 59.299,61.979 55.763,61.979 L45.528,61.979 C41.993,61.979 39.082,60.859 36.878,58.649 C32.23,53.991 32.194,45.966 32.194,45.885 L32.194,31.336 L34.551,32.286 C34.815,34.46 35.33,36.736 36.488,38.722 C37.13,39.824 38.124,40.839 39.215,41.507 C40.607,42.359 42.336,42.487 43.862,42.6 C44.128,42.62 44.39,42.639 44.648,42.662 C46.385,42.817 48.235,42.886 50.646,42.886 C53.056,42.886 54.906,42.817 56.644,42.662 C56.901,42.639 57.163,42.62 57.429,42.6 C58.955,42.487 60.684,42.359 62.077,41.507 C63.168,40.839 64.161,39.824 64.804,38.722 C65.975,36.713 66.487,34.408 66.749,32.212 L69.098,31.163 L69.098,45.886 C69.098,45.966 69.061,53.991 64.414,58.649 L64.414,58.649 Z M55.807,66.476 C55.212,66.476 54.731,66.958 54.731,67.552 C54.731,68.146 55.212,68.628 55.807,68.628 C56.401,68.628 56.882,68.146 56.882,67.552 C56.882,66.958 56.401,66.476 55.807,66.476 L55.807,66.476 Z M58.34,44.953 C55.614,45.621 52.778,45.959 49.911,45.959 C46.61,45.959 43.923,45.511 42.249,45.135 C42.107,45.103 41.957,45.138 41.843,45.228 C41.729,45.32 41.663,45.458 41.663,45.603 L41.663,47.407 C41.663,47.52 41.674,50.214 43.529,52.076 C44.649,53.199 46.185,53.769 48.095,53.769 L52.503,53.769 C54.413,53.769 55.949,53.199 57.069,52.076 C58.924,50.214 58.935,47.52 58.935,47.409 L58.935,45.419 C58.935,45.272 58.867,45.132 58.751,45.041 C58.635,44.95 58.483,44.917 58.34,44.953 L58.34,44.953 Z M57.974,47.409 C57.974,47.423 57.966,48.81 57.275,50.161 C56.377,51.917 54.771,52.808 52.503,52.808 L48.095,52.808 C45.827,52.808 44.221,51.917 43.323,50.161 C42.632,48.81 42.624,47.423 42.624,47.409 L42.624,46.198 C44.356,46.553 46.884,46.921 49.911,46.921 C52.647,46.921 55.357,46.62 57.974,46.026 L57.974,47.409 L57.974,47.409 Z M81.562,67.555 C81.387,67.675 77.268,70.56 77.268,75.641 L77.268,90.138 C77.268,90.403 77.484,90.619 77.749,90.619 C78.014,90.619 78.23,90.403 78.23,90.138 L78.23,75.641 C78.23,71.076 82.068,68.374 82.106,68.347 C82.325,68.197 82.38,67.897 82.23,67.679 C82.079,67.46 81.781,67.405 81.562,67.555 L81.562,67.555 Z" fill="#000000" sketch:type="MSShapeGroup"/></g><text x="0" y="115" fill="#000000" font-size="5px" font-weight="bold" font-family="'Helvetica Neue', Helvetica, Arial-Unicode, Arial, Sans-serif">Created by Marek Polakovic</text><text x="0" y="120" fill="#000000" font-size="5px" font-weight="bold" font-family="'Helvetica Neue', Helvetica, Arial-Unicode, Arial, Sans-serif">from the Noun Project</text></svg>